<svg width="32" height="32" viewBox="0 0 32 32" fill="none" xmlns="http://www.w3.org/2000/svg">
<path d="M28.2813 6.21613C29.0313 7.1988 29.6662 8.2664 30.1732 9.39747L15.7918 20.1415L9.78143 16.3231V11.7294L15.7918 15.5478L28.2813 6.21613Z" fill="#21A038"/>
<path d="M3.64741 15.9996C3.64741 15.7935 3.65237 15.5887 3.66229 15.3851L0.0198374 15.2042C0.00743972 15.4681 4.40174e-06 15.7345 4.40174e-06 16.0033C-0.00154536 18.1039 0.406151 20.1841 1.19971 22.1246C1.99327 24.0652 3.15707 25.8278 4.62436 27.3114L7.20804 24.6942C6.07858 23.5542 5.18257 22.1992 4.57152 20.707C3.96046 19.2149 3.64642 17.6151 3.64741 15.9996Z" fill="url(#paint0_linear_38_1599)"/>
<path d="M15.7885 3.69625C15.9918 3.69625 16.1938 3.7038 16.3947 3.71384L16.577 0.0211162C16.3158 0.00855169 16.053 0.00227017 15.7885 0.00227017C13.7148 -0.000292699 11.6611 0.412294 9.74526 1.21634C7.82938 2.02038 6.0891 3.20005 4.62433 4.68761L7.20801 7.30606C8.33297 6.16102 9.67016 5.25263 11.1427 4.63313C12.6153 4.01364 14.1941 3.69524 15.7885 3.69625Z" fill="url(#paint1_linear_38_1599)"/>
<path d="M15.7886 28.3039C15.5853 28.3039 15.3832 28.3039 15.1811 28.2875L14.9989 31.979C15.2609 31.9924 15.5241 31.9992 15.7886 31.9992C17.8614 32.0013 19.9141 31.5885 21.829 30.7842C23.7438 29.9799 25.483 28.8001 26.9466 27.3126L24.3679 24.6954C23.2427 25.8398 21.9057 26.7477 20.4334 27.367C18.9611 27.9862 17.3826 28.3047 15.7886 28.3039Z" fill="url(#paint2_linear_38_1599)"/>
<path d="M22.6324 5.84255L25.702 3.54951C22.8963 1.24701 19.3941 -0.00639151 15.7838 2.45103e-05V3.69526C18.2285 3.69219 20.6165 4.44093 22.6324 5.84255Z" fill="url(#paint3_linear_38_1599)"/>
<path d="M31.5759 16.0001C31.5779 15.0388 31.4949 14.0792 31.3279 13.1329L27.9298 15.6709C27.9298 15.7803 27.9298 15.8896 27.9298 16.0001C27.9307 17.7193 27.575 19.4195 26.8861 20.9905C26.1971 22.5615 25.19 23.9682 23.9302 25.1195L26.3813 27.8649C28.0191 26.3664 29.3279 24.5359 30.2227 22.492C31.1177 20.448 31.5787 18.2362 31.5759 16.0001Z" fill="#21A038"/>
<path d="M15.7886 28.3043C14.0921 28.3048 12.4144 27.9443 10.8641 27.2461C9.3138 26.5479 7.92549 25.5274 6.78905 24.2509L4.08139 26.7337C5.55977 28.3938 7.36593 29.7204 9.38276 30.6276C11.3996 31.5346 13.582 32.0021 15.7886 31.9994V28.3043Z" fill="url(#paint4_linear_38_1599)"/>
<path d="M7.64693 6.88007L5.19714 4.1347C3.55887 5.63287 2.24961 7.4633 1.35428 9.50727C0.458958 11.5512 -0.00244096 13.7631 9.71133e-06 15.9994H3.64742C3.64667 14.2803 4.00232 12.5801 4.69129 11.0091C5.38028 9.43821 6.38724 8.03145 7.64693 6.88007Z" fill="url(#paint5_linear_38_1599)"/>
<defs>
<linearGradient id="paint0_linear_38_1599" x1="5.36202" y1="26.8504" x2="1.28124" y2="15.2103" gradientUnits="userSpaceOnUse">
<stop offset="0.14" stop-color="#F1E813"/>
<stop offset="0.3" stop-color="#E6E418"/>
<stop offset="0.58" stop-color="#C9DA26"/>
<stop offset="0.89" stop-color="#A2CC39"/>
</linearGradient>
<linearGradient id="paint1_linear_38_1599" x1="5.66573" y1="5.34096" x2="15.9642" y2="1.46846" gradientUnits="userSpaceOnUse">
<stop offset="0.06" stop-color="#0FA7DF"/>
<stop offset="0.54" stop-color="#0098F8"/>
<stop offset="0.92" stop-color="#0290EA"/>
</linearGradient>
<linearGradient id="paint2_linear_38_1599" x1="14.7584" y1="29.7689" x2="26.38" y2="27.1783" gradientUnits="userSpaceOnUse">
<stop offset="0.12" stop-color="#A2CC39"/>
<stop offset="0.28" stop-color="#86C239"/>
<stop offset="0.87" stop-color="#219F38"/>
</linearGradient>
<linearGradient id="paint3_linear_38_1599" x1="15.0251" y1="1.23763" x2="24.971" y2="4.26616" gradientUnits="userSpaceOnUse">
<stop offset="0.06" stop-color="#0290EA"/>
<stop offset="0.79" stop-color="#0C89CA"/>
</linearGradient>
<linearGradient id="paint4_linear_38_1599" x1="4.99634" y1="26.2838" x2="15.8323" y2="30.2799" gradientUnits="userSpaceOnUse">
<stop offset="0.13" stop-color="#F1E813"/>
<stop offset="0.3" stop-color="#EAE616"/>
<stop offset="0.53" stop-color="#D8DF1F"/>
<stop offset="0.8" stop-color="#BAD52D"/>
<stop offset="0.98" stop-color="#A2CC39"/>
</linearGradient>
<linearGradient id="paint5_linear_38_1599" x1="1.3588" y1="16.4467" x2="5.79629" y2="5.05648" gradientUnits="userSpaceOnUse">
<stop offset="0.07" stop-color="#A2CC39"/>
<stop offset="0.26" stop-color="#81C45E"/>
<stop offset="0.92" stop-color="#0FA7DF"/>
</linearGradient>
</defs>
</svg>
