<svg width="32" height="32" viewBox="0 0 32 32" fill="none" xmlns="http://www.w3.org/2000/svg">
<path d="M20.6062 4.79999C14.2896 4.79999 9.21443 9.9099 9.21443 16.155C9.21443 22.4516 14.3397 27.51 20.6049 27.51C26.87 27.51 32 22.4001 32 16.155C32 9.9099 26.8714 4.79999 20.6062 4.79999ZM20.6062 20.3873C18.2764 20.3873 16.3612 18.4775 16.3612 16.155C16.3612 13.8325 18.2764 11.9227 20.6062 11.9227C22.9361 11.9227 24.8519 13.8325 24.8519 16.155C24.7997 18.4775 22.9361 20.3873 20.6062 20.3873ZM9.21443 8.09912V24.6155H5.17814L0 8.09912H9.21443Z" fill="#8B3FFD"/>
</svg>
