<svg width="121" height="123" viewBox="0 0 121 123" fill="none" xmlns="http://www.w3.org/2000/svg">
<path fill-rule="evenodd" clip-rule="evenodd" d="M60.4065 0C27.0449 0 0 27.3389 0 61.0631H36.5823L60.4065 21.2947L84.2308 61.0631H120.813C120.813 44.8682 114.449 29.3365 103.12 17.885C91.792 6.43342 76.4273 0 60.4065 0Z" fill="#FFCC00"/>
<path fill-rule="evenodd" clip-rule="evenodd" d="M6.3366e-05 61.0631C-0.0200656 75.0876 4.75602 88.6881 13.5193 99.5607L36.5824 61.0631H6.3366e-05Z" fill="#3BA8FF"/>
<path fill-rule="evenodd" clip-rule="evenodd" d="M107.294 99.5607C116.057 88.6881 120.833 75.0876 120.813 61.0631H84.231L107.294 99.5607Z" fill="#3BA8FF"/>
<path fill-rule="evenodd" clip-rule="evenodd" d="M60.407 21.2947L36.5823 61.0631H84.2308L60.407 21.2947Z" fill="#FF0000"/>
<path fill-rule="evenodd" clip-rule="evenodd" d="M36.5823 61.0631L13.5193 99.5607C24.9783 113.85 42.2094 122.143 60.4066 122.126C78.6038 122.143 95.8349 113.85 107.294 99.5607L84.2309 61.0631H36.5823Z" fill="#4643B9"/>
</svg>
