<!-- icon666.com - MILLIONS OF FREE VECTOR ICONS --><svg id="Layer_1" enable-background="new 0 0 66 66" viewBox="0 0 66 66" xmlns="http://www.w3.org/2000/svg" xmlns:xlink="http://www.w3.org/1999/xlink"><linearGradient id="SVGID_1_" gradientTransform="matrix(1 0 0 -1 411 73)" gradientUnits="userSpaceOnUse" x1="-378" x2="-378" y1="72" y2="8"><stop offset="0" stop-color="#ff8666"></stop><stop offset="1" stop-color="#e85f3b"></stop></linearGradient><linearGradient id="SVGID_2_" gradientTransform="matrix(1 0 0 -1 411 73)" gradientUnits="userSpaceOnUse" x1="-378" x2="-378" y1="65.553" y2="53.799"><stop offset="0" stop-color="#f7f7f8"></stop><stop offset="1" stop-color="#c4c4cb"></stop></linearGradient><linearGradient id="SVGID_3_" gradientTransform="matrix(1 0 0 -1 411 73)" gradientUnits="userSpaceOnUse" x1="-377.996" x2="-377.996" y1="45.352" y2="22.272"><stop offset="0" stop-color="#ffcd80"></stop><stop offset="1" stop-color="#ffb33f"></stop></linearGradient><g><path d="m59.49 8.07v49.86c0 3.91-3.16 7.07-7.07 7.07h-34.77c-6.15 0-11.14-4.99-11.14-11.15v-41.7c0-6.16 4.99-11.15 11.14-11.15h34.77c3.91 0 7.07 3.16 7.07 7.07z" fill="url(#SVGID_1_)"></path><path d="m52.29 9.22v8.22c0 .97-.79 1.77-1.77 1.77h-30.93c-3.25 0-5.88-2.63-5.88-5.88s2.63-5.88 5.88-5.88h30.94c.97 0 1.76.79 1.76 1.77z" fill="url(#SVGID_2_)"></path><path clip-rule="evenodd" d="m38.02 39.04c1.11-1.21 1.78-2.82 1.78-4.59 0-3.77-3.04-6.81-6.79-6.81-3.77 0-6.81 3.04-6.81 6.81 0 1.77.67 3.38 1.78 4.58-3.12 1.31-5.61 3.82-6.92 6.94-.94 2.26.82 4.74 3.27 4.74h17.35c2.45 0 4.21-2.49 3.27-4.74-1.31-3.11-3.81-5.61-6.93-6.93z" fill="url(#SVGID_3_)" fill-rule="evenodd"></path></g></svg>