<!-- icon666.com - MILLIONS OF FREE VECTOR ICONS --><svg id="Capa_1" enable-background="new 0 0 512 512" viewBox="0 0 512 512" xmlns="http://www.w3.org/2000/svg" xmlns:xlink="http://www.w3.org/1999/xlink"><linearGradient id="SVGID_1_" gradientUnits="userSpaceOnUse" x1="256" x2="256" y1="512" y2="0"><stop offset="0" stop-color="#5558ff"></stop><stop offset="1" stop-color="#00c0ff"></stop></linearGradient><g><path d="m467 42h-16v-27c0-8.284-6.716-15-15-15s-15 6.716-15 15v27h-90v-27c0-8.284-6.716-15-15-15s-15 6.716-15 15v27h-90v-27c0-8.284-6.716-15-15-15s-15 6.716-15 15v27h-90v-27c0-8.284-6.716-15-15-15s-15 6.716-15 15v27h-16c-24.813 0-45 20.187-45 45v380c0 24.813 20.187 45 45 45h422c24.813 0 45-20.187 45-45v-380c0-24.813-20.187-45-45-45zm-437 45c0-8.271 6.729-15 15-15h16v25c0 8.284 6.716 15 15 15s15-6.716 15-15v-25h90v25c0 8.284 6.716 15 15 15s15-6.716 15-15v-25h90v25c0 8.284 6.716 15 15 15s15-6.716 15-15v-25h90v25c0 8.284 6.716 15 15 15s15-6.716 15-15v-25h16c8.271 0 15 6.729 15 15v75h-452zm452 380c0 8.271-6.729 15-15 15h-422c-8.271 0-15-6.729-15-15v-275h452zm-406-135h100c3.979 0 7.794-1.581 10.606-4.394l35.607-35.606h213.787c8.284 0 15-6.716 15-15s-6.716-15-15-15h-213.787l-35.606-35.606c-2.813-2.813-6.628-4.394-10.607-4.394h-100c-8.284 0-15 6.716-15 15v80c0 8.284 6.716 15 15 15zm15-80h78.787l25 25-25 25h-78.787zm-15 160h213.787l35.606 35.606c2.813 2.813 6.628 4.394 10.607 4.394h100c8.284 0 15-6.716 15-15v-80c0-8.284-6.716-15-15-15h-100c-3.979 0-7.794 1.581-10.606 4.394l-35.607 35.606h-213.787c-8.284 0-15 6.716-15 15s6.716 15 15 15zm266.213-40h78.787v50h-78.787l-25-25z" fill="url(#SVGID_1_)"></path></g></svg>