<!-- icon666.com - MILLIONS OF FREE VECTOR ICONS --><svg fill="none" viewBox="0 0 24 20" xmlns="http://www.w3.org/2000/svg" xmlns:xlink="http://www.w3.org/1999/xlink"><linearGradient id="paint0_linear_733_2585" gradientUnits="userSpaceOnUse" x1="0" x2="19.672" y1="0" y2="23.607"><stop offset="0" stop-color="#ff9d6c"></stop><stop offset=".958333" stop-color="#bb4e75"></stop></linearGradient><g fill="url(#paint0_linear_733_2585)"><path d="m10.7071 1.70711c.3905-.39053.3905-1.023693 0-1.414217-.3905-.3905241-1.02368-.3905241-1.41421 0l-6 5.999997c-.39052.39053-.39052 1.02369 0 1.41422.39053.39052 1.02369.39052 1.41422 0z"></path><path d="m14.7071.292893c-.3905-.3905241-1.0237-.3905241-1.4142 0-.3905.390524-.3905 1.023687 0 1.414217l6 6c.3905.39052 1.0237.39052 1.4142 0 .3905-.39053.3905-1.02369 0-1.41422z"></path><path clip-rule="evenodd" d="m2.11163 8.0001c.10956.95303.19909 1.82689.28013 2.6306l.0317.3148c.09199.9145.17539 1.7435.2672 2.4826.20032 1.6125.45594 2.9691 1.04824 4.0056.64282 1.125 1.61903 1.778 2.98579 2.1354 1.30306.3408 3.02731.431 5.27531.431s3.9722-.0902 5.2753-.431c1.3668-.3574 2.343-1.0104 2.9858-2.1354.5923-1.0365.8479-2.3931 1.0482-4.0056.0918-.7391.1752-1.5679.2672-2.4823l.0317-.3151c.0811-.80371.1706-1.67757.2802-2.6306h1.1116c.5523 0 1-.44771 1-1 0-.55228-.4477-1-1-1h-1.987c-.0095-.00013-.019-.00013-.0285 0h-17.96897c-.00949-.00013-.01902-.00013-.02856 0h-1.98697c-.552285 0-1 .44772-1 1 0 .55229.447716 1 1 1zm2.01297 0c.09952.87922.18226 1.68807.25707 2.4299l.03147.3125c.09258.9202.17352 1.7246.26227 2.439.20147 1.6218.42799 2.609.79998 3.26.32146.5625.79168.9407 1.75528 1.1927 1.02729.2686 2.51733.3659 4.76933.3659s3.742-.0973 4.7693-.3659c.9636-.252 1.4338-.6302 1.7553-1.1927.372-.651.5985-1.6382.8-3.26.0887-.7145.1697-1.519.2623-2.4392l.0314-.3123c.0748-.74183.1576-1.55068.2571-2.4299z" fill-rule="evenodd"></path><path d="m10 10c-.55228 0-1 .4477-1 1v4c0 .5523.44772 1 1 1 .5523 0 1-.4477 1-1v-4c0-.5523-.4477-1-1-1z"></path><path d="m14 10c-.5523 0-1 .4477-1 1v4c0 .5523.4477 1 1 1s1-.4477 1-1v-4c0-.5523-.4477-1-1-1z"></path></g></svg>