<!-- icon666.com - MILLIONS OF FREE VECTOR ICONS --><svg id="Layer_1" enable-background="new 0 0 66 66" viewBox="0 0 66 66" xmlns="http://www.w3.org/2000/svg" xmlns:xlink="http://www.w3.org/1999/xlink"><linearGradient id="SVGID_1_" gradientTransform="matrix(1 0 0 -1 411 -307)" gradientUnits="userSpaceOnUse" x1="-378" x2="-378" y1="-308" y2="-372"><stop offset="0" stop-color="#ff8666"></stop><stop offset="1" stop-color="#e85f3b"></stop></linearGradient><linearGradient id="lg1"><stop offset="0" stop-color="#ffcd80"></stop><stop offset="1" stop-color="#ffb33f"></stop></linearGradient><linearGradient id="SVGID_2_" gradientTransform="matrix(1 0 0 -1 411 -307)" gradientUnits="userSpaceOnUse" x1="-377.993" x2="-377.993" xlink:href="#lg1" y1="-327.569" y2="-352.416"></linearGradient><linearGradient id="SVGID_3_" gradientTransform="matrix(1 0 0 -1 411 -307)" gradientUnits="userSpaceOnUse" x1="-367.751" x2="-367.751" xlink:href="#lg1" y1="-342.911" y2="-357.562"></linearGradient><linearGradient id="SVGID_4_" gradientTransform="matrix(1 0 0 -1 411 -307)" gradientUnits="userSpaceOnUse" x1="-388.245" x2="-388.245" xlink:href="#lg1" y1="-322.441" y2="-337.073"></linearGradient><g><path d="m62.85 37.82c.92 1.52 1.13 3.37.59 5.07-.57 1.68-1.81 3.06-3.45 3.75l-4.47 1.91c-.43.18-.74.58-.78 1.05l-.41 4.84c-.15 1.77-1.07 3.39-2.52 4.45-1.44 1.03-3.26 1.41-4.99 1.02l-4.74-1.09c-.47-.12-.94.04-1.25.39l-3.18 3.67c-1.18 1.34-2.88 2.12-4.65 2.12s-3.47-.78-4.65-2.13l-3.18-3.67c-.31-.35-.8-.51-1.25-.39l-4.74 1.09c-1.74.39-3.55.02-4.99-1.02-1.44-1.05-2.36-2.67-2.52-4.45l-.43-4.84c-.04-.47-.33-.88-.76-1.05l-4.47-1.91c-1.64-.68-2.91-2.07-3.45-3.75-.54-1.7-.33-3.55.59-5.07l2.5-4.17c.24-.39.24-.9 0-1.31l-2.5-4.15c-.92-1.54-1.13-3.37-.59-5.07s1.81-3.06 3.45-3.76l4.47-1.89c.43-.19.72-.58.76-1.07l.43-4.84c.15-1.77 1.07-3.37 2.52-4.43 1.44-1.05 3.26-1.42 4.99-1.02l4.74 1.09c.45.1.94-.06 1.25-.41l3.18-3.67c1.17-1.35 2.87-2.11 4.65-2.11 1.77 0 3.47.76 4.65 2.11l3.18 3.67c.31.35.78.51 1.25.41l4.74-1.09c1.74-.41 3.55-.04 4.99 1.02 1.44 1.03 2.36 2.65 2.52 4.43l.41 4.86c.04.47.35.86.78 1.05l4.47 1.89c1.64.7 2.89 2.07 3.45 3.76.54 1.7.33 3.53-.59 5.07l-2.5 4.15c-.24.41-.24.92 0 1.31z" fill="url(#SVGID_1_)"></path><path d="m22.53 45.42c-.5 0-1-.19-1.38-.57-.77-.77-.77-2 0-2.76l20.95-20.95c.77-.77 2-.77 2.76 0 .77.77.77 2 0 2.76l-20.94 20.94c-.38.38-.89.58-1.39.58z" fill="url(#SVGID_2_)"></path><path d="m43.25 50.56c-1.96 0-3.8-.76-5.18-2.14-2.86-2.86-2.86-7.51 0-10.37 1.37-1.38 3.21-2.15 5.17-2.15 1.97 0 3.8.77 5.18 2.16 2.85 2.85 2.85 7.5-.01 10.36-1.37 1.38-3.2 2.14-5.16 2.14zm0-10.75c-.91 0-1.77.35-2.41 1-1.35 1.35-1.35 3.52-.01 4.86 1.28 1.28 3.55 1.28 4.83 0 1.34-1.34 1.34-3.51 0-4.85-.64-.66-1.5-1.01-2.41-1.01z" fill="url(#SVGID_3_)"></path><path d="m22.76 30.07c-1.88 0-3.75-.71-5.18-2.14-1.38-1.38-2.15-3.22-2.15-5.18s.77-3.8 2.16-5.18c2.85-2.85 7.5-2.86 10.36.01 1.38 1.38 2.13 3.22 2.13 5.18s-.76 3.8-2.13 5.18c-1.43 1.42-3.31 2.13-5.19 2.13zm0-10.73c-.88 0-1.76.33-2.42 1-.66.65-1.01 1.5-1.01 2.41s.35 1.77 1 2.41c1.34 1.34 3.52 1.34 4.86.01.64-.64.99-1.5.99-2.41s-.35-1.77-.99-2.41c-.67-.68-1.55-1.01-2.43-1.01z" fill="url(#SVGID_4_)"></path></g></svg>