<!-- icon666.com - MILLIONS OF FREE VECTOR ICONS --><svg id="Layer_1" enable-background="new 0 0 66 66" viewBox="0 0 66 66" xmlns="http://www.w3.org/2000/svg" xmlns:xlink="http://www.w3.org/1999/xlink"><linearGradient id="SVGID_1_" gradientTransform="matrix(1 0 0 -1 411 149)" gradientUnits="userSpaceOnUse" x1="-378" x2="-378" y1="148" y2="84"><stop offset="0" stop-color="#885efc"></stop><stop offset="1" stop-color="#653aff"></stop></linearGradient><linearGradient id="SVGID_2_" gradientTransform="matrix(1 0 0 -1 411 149)" gradientUnits="userSpaceOnUse" x1="-372.89" x2="-372.89" y1="132.526" y2="90.641"><stop offset="0" stop-color="#ffcd80"></stop><stop offset="1" stop-color="#ffb33f"></stop></linearGradient><linearGradient id="SVGID_3_" gradientTransform="matrix(1 0 0 -1 411 149)" gradientUnits="userSpaceOnUse" x1="-372.252" x2="-372.252" y1="120.576" y2="101.302"><stop offset="0" stop-color="#20b6fe"></stop><stop offset="1" stop-color="#653aff"></stop></linearGradient><g><path d="m8.08 8.08c-9.44 9.44-9.44 24.82 0 34.26l19.58 19.58c4.1 4.1 10.76 4.1 14.86 0l19.4-19.4c4.1-4.1 4.1-10.76 0-14.86l-19.57-19.58c-9.45-9.44-24.82-9.44-34.27 0zm13.48 13.48c-2.22 2.22-5.82 2.22-8.04-.01-2.22-2.22-2.2-5.8.01-8.02 2.22-2.22 5.8-2.22 8.02-.01 2.23 2.24 2.23 5.83.01 8.04z" fill="url(#SVGID_1_)"></path><path d="m43.97 18.09 13.47 13.47c2.15 2.15 2.15 5.64 0 7.79l-17.4 17.4c-2.15 2.15-5.64 2.15-7.79 0l-13.47-13.48c-2.15-2.15-2.15-5.64 0-7.79l17.4-17.4c2.15-2.14 5.64-2.14 7.79.01z" fill="url(#SVGID_2_)"></path><path clip-rule="evenodd" d="m35.75 44.7c0 1.66 1.34 3 3 3s3-1.34 3-3v-3.64h3.64c1.66 0 3-1.34 3-3s-1.34-3-3-3h-3.64v-3.63c0-1.66-1.34-3-3-3s-3 1.34-3 3v3.63h-3.64c-1.66 0-3 1.34-3 3s1.34 3 3 3h3.64z" fill="url(#SVGID_3_)" fill-rule="evenodd"></path></g></svg>