<!-- icon666.com - MILLIONS OF FREE VECTOR ICONS --><svg id="Layer_1" enable-background="new 0 0 66 66" viewBox="0 0 66 66" xmlns="http://www.w3.org/2000/svg" xmlns:xlink="http://www.w3.org/1999/xlink"><linearGradient id="SVGID_1_" gradientTransform="matrix(1 0 0 -1 411 149)" gradientUnits="userSpaceOnUse" x1="-378" x2="-378" y1="147.22" y2="84.781"><stop offset="0" stop-color="#ffcd80"></stop><stop offset="1" stop-color="#ffb33f"></stop></linearGradient><linearGradient id="SVGID_2_" gradientTransform="matrix(1 0 0 -1 411 149)" gradientUnits="userSpaceOnUse" x1="-378.257" x2="-378.257" y1="140.066" y2="92.48"><stop offset="0" stop-color="#885efc"></stop><stop offset="1" stop-color="#653aff"></stop></linearGradient><g><path d="m33 64.22c17.24 0 31.22-13.98 31.22-31.22s-13.98-31.22-31.22-31.22-31.22 13.98-31.22 31.22 13.98 31.22 31.22 31.22z" fill="url(#SVGID_1_)"></path><path clip-rule="evenodd" d="m32.74 19.81c-.01 0-.03 0-.04 0-2.69.03-4.88 2.23-4.88 4.93 0 2.72 2.22 4.93 4.93 4.93.09 0 .18 0 .26.01 5.95.15 10.75 5.04 10.75 11.02 0 5.02-3.37 9.27-7.98 10.59v2.17c.01 1.68-1.36 3.04-3.04 3.04-1.69 0-3.04-1.37-3.04-3.04v-2.16c-4.6-1.32-7.98-5.58-7.98-10.6 0-1.69 1.37-3.04 3.04-3.04 1.69 0 3.04 1.37 3.04 3.04 0 2.72 2.22 4.93 4.93 4.93s4.93-2.22 4.93-4.93-2.22-4.93-4.93-4.93h-.01c-6.07-.01-11.01-4.95-11.01-11.03 0-5.02 3.38-9.28 7.98-10.6v-2.16c0-1.69 1.37-3.04 3.04-3.04 1.69 0 3.04 1.37 3.04 3.04v2.16c4.6 1.32 7.98 5.58 7.98 10.6 0 1.69-1.37 3.04-3.04 3.04-1.69 0-3.04-1.37-3.04-3.04 0-2.7-2.19-4.91-4.89-4.93 0 0-.02 0-.04 0z" fill="url(#SVGID_2_)" fill-rule="evenodd"></path></g></svg>