<!-- icon666.com - MILLIONS OF FREE VECTOR ICONS --><svg id="Layer_1" enable-background="new 0 0 66 66" viewBox="0 0 66 66" xmlns="http://www.w3.org/2000/svg" xmlns:xlink="http://www.w3.org/1999/xlink"><linearGradient id="SVGID_1_" gradientTransform="matrix(1 0 0 -1 411 -307)" gradientUnits="userSpaceOnUse" x1="-401.616" x2="-401.616" y1="-350.562" y2="-368.002"><stop offset="0" stop-color="#20b6fe"></stop><stop offset="1" stop-color="#653aff"></stop></linearGradient><linearGradient id="SVGID_2_" gradientTransform="matrix(1 0 0 -1 411 -307)" gradientUnits="userSpaceOnUse" x1="-378" x2="-378" y1="-341.939" y2="-368.003"><stop offset="0" stop-color="#93b0c2"></stop><stop offset="1" stop-color="#15708f"></stop></linearGradient><linearGradient id="SVGID_3_" gradientTransform="matrix(1 0 0 -1 411 -307)" gradientUnits="userSpaceOnUse" x1="-354.384" x2="-354.384" y1="-327.787" y2="-368.003"><stop offset="0" stop-color="#ff8666"></stop><stop offset="1" stop-color="#e85f3b"></stop></linearGradient><linearGradient id="SVGID_4_" gradientTransform="matrix(1 0 0 -1 411 -307)" gradientUnits="userSpaceOnUse" x1="-378.004" x2="-378.004" y1="-311.997" y2="-337.123"><stop offset="0" stop-color="#ffb441"></stop><stop offset="1" stop-color="#e85f3b"></stop></linearGradient><g><path d="m17.87 46.63v11.31c0 1.69-1.38 3.06-3.06 3.06h-10.85c-1.69 0-3.06-1.38-3.06-3.06v-11.31c0-1.69 1.38-3.06 3.06-3.06h10.84c1.69-.02 3.07 1.37 3.07 3.06z" fill="url(#SVGID_1_)"></path><path d="m41.48 38.03v19.91c0 1.69-1.38 3.06-3.06 3.06h-10.84c-1.69 0-3.06-1.38-3.06-3.06v-19.91c0-1.7 1.38-3.09 3.06-3.09h10.84c1.69 0 3.06 1.37 3.06 3.09z" fill="url(#SVGID_2_)"></path><path d="m65.1 23.88v34.06c0 1.69-1.38 3.06-3.06 3.06h-10.84c-1.69 0-3.06-1.38-3.06-3.06v-34.06c0-1.7 1.38-3.09 3.06-3.09h10.84c1.68 0 3.06 1.37 3.06 3.09z" fill="url(#SVGID_3_)"></path><path d="m9.38 30.12c-1.22 0-2.38-.73-2.86-1.94-.63-1.58.14-3.38 1.71-4.02l47.23-18.94c1.58-.63 3.38.13 4.02 1.71.63 1.58-.14 3.38-1.71 4.02l-47.24 18.95c-.37.15-.77.22-1.15.22z" fill="url(#SVGID_4_)"></path></g></svg>