<!-- icon666.com - MILLIONS OF FREE VECTOR ICONS --><svg fill="none" viewBox="0 0 26 26" xmlns="http://www.w3.org/2000/svg" xmlns:xlink="http://www.w3.org/1999/xlink"><linearGradient id="paint0_linear_79_1003" gradientUnits="userSpaceOnUse" x1="13" x2="13" y1="1.806" y2="24.195"><stop offset="0" stop-color="#3747d6"></stop><stop offset="1" stop-color="#9545ed"></stop></linearGradient><g clip-rule="evenodd" fill="url(#paint0_linear_79_1003)" fill-rule="evenodd"><path d="m14.4446 3.97233c-4.98588 0-9.02776 4.04187-9.02776 9.02777 0 .5983-.48501 1.0833-1.08333 1.0833-.5983 0-1.08333-.485-1.08333-1.0833 0-6.18252 5.01193-11.19444 11.19442-11.19444 6.1825 0 11.1944 5.01192 11.1944 11.19444 0 1.7149-.3864 3.3426-1.0778 4.7982-.2567.5405-.9029.7704-1.4433.5136-.5405-.2567-.7705-.9029-.5138-1.4433.5564-1.1712.8683-2.4819.8683-3.8685 0-4.9859-4.0419-9.02777-9.0278-9.02777zm-9.22576 13.31087c.51247-.3088 1.17823-.1437 1.48703.3687 1.58142 2.6246 4.45613 4.376 7.73873 4.376 1.3867 0 2.6973-.3119 3.8685-.8683.2687-.1275.53-.2681.7833-.4207.5125-.3089 1.1783-.1438 1.4871.3687s.1437 1.1783-.3688 1.4871c-.3142.1894-.6384.3637-.972.522-1.4554.6915-3.0831 1.0779-4.7981 1.0779-4.0734 0-7.63739-2.1764-9.59454-5.4244-.3088-.5125-.14368-1.1782.36878-1.487z"></path><path d="m13.7224 7.58344c.5983 0 1.0833.48503 1.0833 1.08334v4.69442h4.6944c.5983 0 1.0834.485 1.0834 1.0834 0 .5983-.4851 1.0833-1.0834 1.0833h-5.7777c-.5983 0-1.0833-.485-1.0833-1.0833v-5.77782c0-.59831.485-1.08334 1.0833-1.08334z"></path><path d="m.843638 7.7655c.497822-.33188 1.170422-.19735 1.502312.30046l2.28796 3.43194 3.43194-2.28796c.49783-.33187 1.17044-.19735 1.50233.30046.33187.4978.19735 1.1704-.30048 1.5023l-4.33333 2.8889c-.49781.3319-1.17042.1974-1.50231-.3005l-2.888885-4.33329c-.331881-.49781-.19736-1.17042.300463-1.50231z"></path></g></svg>