<!-- icon666.com - MILLIONS OF FREE VECTOR ICONS --><svg id="Layer_1" enable-background="new 0 0 60 60" viewBox="0 0 60 60" xmlns="http://www.w3.org/2000/svg"><path d="m21.39 18.34c-.14-.39-.52-.66-.94-.66s-.79.26-.94.66l-3.84 10.47c-.19.52.08 1.09.59 1.28.11.04.23.06.34.06.41 0 .79-.25.94-.66l.87-2.36h4.07l.86 2.36c.19.52.76.78 1.28.6s.79-.76.6-1.28zm-2.24 6.8 1.3-3.55 1.3 3.55z"></path><path d="m46.84 36.99c-.85-.26-1.62-.64-2.31-1.13 2.51-2.87 3-6.42 3.01-6.47.04-.28-.05-.57-.24-.79-.19-.21-.46-.34-.75-.34h-3.25v-.9c0-.55-.45-1-1-1s-1 .45-1 1v.9h-3.66c-.55 0-1 .45-1 1s.45 1 1 1h7.68c-.3 1.1-.94 2.81-2.24 4.28-.57-.65-1.07-1.4-1.49-2.26-.24-.5-.84-.7-1.34-.46s-.7.84-.46 1.34c.5 1.02 1.1 1.93 1.8 2.72-.82.58-1.81 1.04-3 1.31-.54.12-.88.66-.76 1.19.1.47.52.78.97.78.07 0 .15-.01.22-.02 1.64-.37 2.96-1.06 4.04-1.89.95.73 2.02 1.3 3.19 1.66.1.03.2.05.3.05.43 0 .82-.28.96-.7.15-.55-.14-1.11-.67-1.27z"></path><path d="m39.55 18.48c-1.61 0-3.19.22-4.7.64-2.24-4.97-7.84-8.5-14.4-8.5-8.52 0-15.45 5.96-15.45 13.3 0 2.78.99 5.44 2.87 7.7-.93 4.25-2.76 8.46-2.78 8.5-.16.36-.09.77.17 1.07.19.21.46.33.74.33.1 0 .2-.01.29-.04 3.93-1.2 6.95-3.58 8.62-5.14 1.77.59 3.63.89 5.54.89 1.64 0 3.21-.22 4.69-.63 2.29 5.12 7.94 8.5 14.41 8.5 1.91 0 3.76-.3 5.54-.89 1.67 1.56 4.69 3.94 8.62 5.14.1.03.2.04.29.04.28 0 .55-.12.75-.34.26-.29.33-.71.17-1.07-.02-.04-1.86-4.25-2.78-8.5 1.88-2.26 2.87-4.92 2.87-7.7-.01-7.33-6.94-13.3-15.46-13.3zm-24.54 15.77c-.37-.14-.78-.05-1.05.23-1.14 1.13-3.31 3-6.18 4.31.68-1.8 1.6-4.51 2.15-7.24.06-.31-.02-.63-.23-.86-1.77-1.99-2.7-4.33-2.7-6.77 0-6.23 6.03-11.3 13.45-11.3s13.45 5.07 13.45 11.3-6.03 11.3-13.45 11.3c-1.88-.01-3.71-.33-5.44-.97zm35.3 4.29c-.21.23-.3.55-.23.86.55 2.73 1.47 5.44 2.15 7.24-2.88-1.3-5.04-3.18-6.18-4.31-.28-.27-.69-.36-1.05-.23-1.73.64-3.55.97-5.44.97-5.51 0-10.5-2.9-12.51-7.15 5.23-2.13 8.86-6.71 8.86-12.01 0-1-.14-1.97-.38-2.91 1.3-.34 2.65-.53 4.03-.53 7.42 0 13.45 5.07 13.45 11.3-.01 2.46-.94 4.79-2.7 6.77z"></path></svg>