<!-- icon666.com - MILLIONS OF FREE VECTOR ICONS --><svg id="Layer_1" enable-background="new 0 0 66 66" viewBox="0 0 66 66" xmlns="http://www.w3.org/2000/svg" xmlns:xlink="http://www.w3.org/1999/xlink"><linearGradient id="SVGID_1_" gradientTransform="matrix(1 0 0 -1 411 -155)" gradientUnits="userSpaceOnUse" x1="-378" x2="-378" y1="-156.011" y2="-219.989"><stop offset="0" stop-color="#ffb441"></stop><stop offset="1" stop-color="#e85f3b"></stop></linearGradient><linearGradient id="SVGID_2_" gradientTransform="matrix(1 0 0 -1 411 -155)" gradientUnits="userSpaceOnUse" x1="-378.002" x2="-378.002" y1="-172.575" y2="-205.727"><stop offset="0" stop-color="#f7f7f8"></stop><stop offset="1" stop-color="#c4c4cb"></stop></linearGradient><g><path d="m65 33.01c0 17.67-14.33 31.98-32 31.98s-32-14.31-32-31.98 14.33-32 32-32 32 14.33 32 32z" fill="url(#SVGID_1_)"></path><path d="m48.65 37.67-11.21 11.21c-1.18 1.19-2.77 1.85-4.45 1.85-1.66 0-3.25-.67-4.43-1.85l-11.22-11.21c-4.58-4.6-4.58-12.05-.02-16.64 2.23-2.23 5.19-3.46 8.33-3.46h.02c2.7 0 5.23.92 7.31 2.58 4.62-3.68 11.38-3.4 15.66.86 4.6 4.59 4.6 12.06.01 16.66z" fill="url(#SVGID_2_)"></path></g></svg>