<svg width="40" height="40" viewBox="0 0 40 40" fill="none" xmlns="http://www.w3.org/2000/svg">
<rect width="40" height="40" rx="20" fill="url(#paint0_linear_510_905)"/>
<g filter="url(#filter0_d_510_905)">
<path d="M28 16.1973C28 15.7968 27.9983 15.4948 27.9902 15.2529C26.9849 15.9989 25.7656 16.9175 24.7305 17.7041C24.1049 18.1795 23.5474 18.6056 23.1465 18.9121C22.946 19.0654 22.784 19.1883 22.6729 19.2734C22.6173 19.316 22.575 19.3498 22.5459 19.3721C22.5313 19.3832 22.5201 19.3918 22.5127 19.3975C22.509 19.4003 22.5058 19.4019 22.5039 19.4033L22.502 19.4053C22.4962 19.4097 22.4902 19.4147 22.4844 19.4189C21.8751 19.8657 21.3541 20.2688 20.751 20.4248C20.2584 20.5521 19.7406 20.5522 19.2481 20.4248C18.6454 20.2689 18.1267 19.8659 17.5186 19.4199C17.5139 19.4165 17.5095 19.4127 17.5049 19.4092V19.4102L12.0088 15.2588C12.0009 15.5004 12 15.8014 12 16.2002V23.7998C12 24.3764 12.0013 24.749 12.0244 25.0322C12.0466 25.3037 12.0842 25.4046 12.1094 25.4541C12.2056 25.6427 12.3584 25.7961 12.5459 25.8916C12.5952 25.9167 12.6959 25.9544 12.9668 25.9766C13.2497 25.9997 13.6218 26 14.1973 26H25.8027C26.3779 26 26.7496 25.9996 27.0322 25.9766C27.3025 25.9545 27.4037 25.9167 27.4531 25.8916C27.6418 25.7955 27.796 25.6417 27.8916 25.4541C27.9167 25.4048 27.9544 25.3042 27.9766 25.0332C27.9997 24.7505 28 24.3791 28 23.8037V16.1973ZM13.6611 14.002L18.7012 17.8076L19.1611 18.1406C19.5277 18.4003 19.6437 18.461 19.749 18.4883C19.9133 18.5308 20.0867 18.5308 20.251 18.4883C20.3917 18.4518 20.552 18.3548 21.3008 17.8057C21.3079 17.8002 21.3178 17.7929 21.3291 17.7842C21.3584 17.7617 21.4016 17.729 21.457 17.6865C21.5687 17.601 21.7306 17.4769 21.9316 17.3232C22.3336 17.0159 22.8922 16.5891 23.5195 16.1123C24.397 15.4454 25.4134 14.6797 26.3213 14.002C26.1682 14.0009 25.9956 14 25.7998 14H14.2002C13.9968 14 13.8188 14.0008 13.6611 14.002ZM30 23.8037C30 24.3461 30.0011 24.8132 29.9697 25.1963C29.9374 25.5911 29.8655 25.9843 29.6729 26.3623C29.385 26.927 28.9251 27.3856 28.3613 27.6729C27.9833 27.8655 27.5902 27.9374 27.1953 27.9697C26.8123 28.001 26.345 28 25.8027 28H14.1973C13.6548 28 13.187 28.0011 12.8037 27.9697C12.4089 27.9375 12.0158 27.8655 11.6377 27.6729C11.0729 27.385 10.6145 26.926 10.3272 26.3623C10.1344 25.984 10.0626 25.5906 10.0303 25.1953C9.99893 24.8117 10 24.3434 10 23.7998V16.2002C10 15.6566 9.99893 15.1885 10.0303 14.8047C10.0626 14.4094 10.1344 14.0161 10.3272 13.6377C10.6148 13.0733 11.0733 12.6148 11.6377 12.3272C12.0161 12.1344 12.4094 12.0626 12.8047 12.0303C13.1885 11.9989 13.6566 12 14.2002 12H25.7998C26.3433 12 26.8118 11.9989 27.1953 12.0303C27.5905 12.0626 27.9832 12.1345 28.3613 12.3272C28.9246 12.6142 29.3847 13.0723 29.6729 13.6377C29.8655 14.0158 29.9375 14.4089 29.9697 14.8037C30.0011 15.187 30 15.6548 30 16.1973V23.8037Z" fill="white"/>
</g>
<defs>
<filter id="filter0_d_510_905" x="8" y="12" width="24" height="20" filterUnits="userSpaceOnUse" color-interpolation-filters="sRGB">
<feFlood flood-opacity="0" result="BackgroundImageFix"/>
<feColorMatrix in="SourceAlpha" type="matrix" values="0 0 0 0 0 0 0 0 0 0 0 0 0 0 0 0 0 0 127 0" result="hardAlpha"/>
<feOffset dy="2"/>
<feGaussianBlur stdDeviation="1"/>
<feComposite in2="hardAlpha" operator="out"/>
<feColorMatrix type="matrix" values="0 0 0 0 0 0 0 0 0 0 0 0 0 0 0 0 0 0 0.2 0"/>
<feBlend mode="normal" in2="BackgroundImageFix" result="effect1_dropShadow_510_905"/>
<feBlend mode="normal" in="SourceGraphic" in2="effect1_dropShadow_510_905" result="shape"/>
</filter>
<linearGradient id="paint0_linear_510_905" x1="20" y1="0" x2="20" y2="40" gradientUnits="userSpaceOnUse">
<stop stop-color="#FFE942"/>
<stop offset="1" stop-color="#E0743D"/>
</linearGradient>
</defs>
</svg>
