<!-- icon666.com - MILLIONS OF FREE VECTOR ICONS --><svg id="ICON" viewBox="0 0 32 32" xmlns="http://www.w3.org/2000/svg" xmlns:xlink="http://www.w3.org/1999/xlink"><linearGradient id="New_Gradient_Swatch_1" gradientUnits="userSpaceOnUse" x1="8.859" x2="23.141" y1="28.368" y2="3.632"><stop offset="0" stop-color="#3cacb6"></stop><stop offset="1" stop-color="#8ccead"></stop></linearGradient><path d="m28.534 6.819c-2.139-.595-4.351-.875-6.558-.818-2.129.049-4.241.401-6.278 1.046-1.856.588-3.782.909-5.722.954-1.847.042-3.702-.166-5.503-.621-.593-.148-1.215-.019-1.7.36-.491.383-.773.96-.773 1.583v13.93c0 .896.603 1.689 1.466 1.929 1.971.548 3.998.825 6.036.825.174 0 .348-.002.521-.006 2.129-.049 4.241-.401 6.278-1.046 1.856-.588 3.782-.909 5.722-.954 1.854-.039 3.702.166 5.503.621.594.15 1.216.02 1.7-.36.491-.383.773-.96.773-1.583v-13.931c0-.896-.603-1.689-1.466-1.929zm-.534 15.858c-1.971-.497-3.998-.727-6.023-.677-2.129.049-4.241.401-6.278 1.046-1.856.588-3.782.909-5.722.954-2.018.042-4.026-.205-5.977-.749l-.016-13.933c1.976.499 4.012.734 6.039.681 2.129-.049 4.241-.401 6.278-1.046 1.856-.588 3.782-.909 5.722-.954 2.009-.049 4.026.204 5.977.749zm-12-10.677c-2.206 0-4 1.794-4 4s1.794 4 4 4 4-1.794 4-4-1.794-4-4-4zm0 6c-1.103 0-2-.897-2-2s.897-2 2-2 2 .897 2 2-.897 2-2 2zm6-8h3c.553 0 1 .448 1 1s-.447 1-1 1h-3c-.553 0-1-.448-1-1s.447-1 1-1zm-11 11c0 .552-.447 1-1 1h-3c-.553 0-1-.448-1-1s.447-1 1-1h3c.553 0 1 .448 1 1z" fill="url(#New_Gradient_Swatch_1)"></path></svg>