<svg width="315" height="314" viewBox="0 0 315 314" fill="none" xmlns="http://www.w3.org/2000/svg">
<path d="M268.869 45.9841C239.121 16.3313 199.569 0 157.5 0C115.431 0 75.8785 16.3306 46.1313 45.9841C16.3827 75.6376 0 115.064 0 157C0 198.936 16.3827 238.362 46.1313 268.016C75.8785 297.669 115.431 314 157.5 314C199.569 314 239.121 297.669 268.869 268.015C298.617 238.362 315 198.936 315 157C315 115.064 298.617 75.6376 268.869 45.9841ZM298.421 157C298.421 192.762 284.938 225.438 262.783 250.263L182.977 170.709C185.025 172.147 186.984 173.767 188.815 175.592C190.434 177.205 192.555 178.012 194.677 178.012C196.798 178.012 198.92 177.205 200.538 175.592C203.776 172.365 203.776 167.133 200.538 163.906C188.895 152.3 173.668 146.402 158.375 146.185L125.452 113.367C135.632 109.911 146.425 108.107 157.501 108.107C183.967 108.107 208.836 118.369 227.529 137.002C230.767 140.228 236.015 140.229 239.252 137.002C242.49 133.775 242.49 128.543 239.252 125.316C217.429 103.561 188.396 91.5809 157.501 91.5809C141.822 91.5809 126.623 94.6727 112.602 100.557L63.9417 52.0513C88.8439 29.9662 121.624 16.5263 157.5 16.5263C235.204 16.5263 298.421 79.5425 298.421 157ZM16.5789 157C16.5789 121.238 30.0623 88.5612 52.217 63.7367L97.1155 108.493C89.4454 113.19 82.2734 118.812 75.7492 125.316C72.5117 128.543 72.5117 133.775 75.7492 137.002C77.3673 138.615 79.4894 139.422 81.6109 139.422C83.7323 139.422 85.8537 138.615 87.4725 137.002C94.0298 130.465 101.35 124.963 109.231 120.569L138.081 149.327C129.444 152.211 121.329 157.061 114.462 163.906C111.225 167.133 111.225 172.365 114.462 175.592C117.7 178.819 122.948 178.819 126.186 175.592C133.382 168.419 142.46 164.246 151.849 163.053L251.06 261.949C226.156 284.034 193.376 297.474 157.5 297.474C79.7958 297.474 16.5789 234.458 16.5789 157ZM165.79 208.585V214.156C165.79 218.719 162.078 222.419 157.501 222.419C152.923 222.419 149.211 218.719 149.211 214.156V208.585C149.211 204.021 152.923 200.321 157.501 200.321C162.078 200.321 165.79 204.021 165.79 208.585Z" fill="url(#paint0_linear_732_2982)"/>
<defs>
<linearGradient id="paint0_linear_732_2982" x1="157.5" y1="0" x2="157.5" y2="314" gradientUnits="userSpaceOnUse">
<stop stop-color="#FFE942"/>
<stop offset="1" stop-color="#E0743D"/>
</linearGradient>
</defs>
</svg>
