<!-- icon666.com - MILLIONS OF FREE VECTOR ICONS --><svg fill="none" viewBox="0 0 32 32" xmlns="http://www.w3.org/2000/svg"><g fill="rgb(0,0,0)"><path d="m9 4c-.55229 0-1 .44772-1 1s.44771 1 1 1h2c.5523 0 1-.44772 1-1s-.4477-1-1-1z"></path><path d="m10 29c.5523 0 1-.4477 1-1s-.4477-1-1-1c-.55228 0-1 .4477-1 1s.44772 1 1 1z"></path><path clip-rule="evenodd" d="m0 3c0-1.65685 1.34315-3 3-3h14c1.6569 0 3 1.34315 3 3v7h9c1.6569 0 3 1.3431 3 3v10c0 1.6569-1.3431 3-3 3h-9v3c0 1.6569-1.3431 3-3 3h-14c-1.65685 0-3-1.3431-3-3zm18 0v7h-7c-1.65685 0-3 1.3431-3 3v10c0 1.6569 1.34315 3 3 3h7v3c0 .5523-.4477 1-1 1h-14c-.55228 0-1-.4477-1-1v-26c0-.55228.44772-1 1-1h14c.5523 0 1 .44772 1 1zm-7 9c-.5523 0-1 .4477-1 1v1h20v-1c0-.5523-.4477-1-1-1zm-1 11v-7h20v7c0 .5523-.4477 1-1 1h-18c-.5523 0-1-.4477-1-1z" fill-rule="evenodd"></path></g></svg>