<!-- icon666.com - MILLIONS OF FREE VECTOR ICONS --><svg viewBox="-48 0 496 496" xmlns="http://www.w3.org/2000/svg" xmlns:xlink="http://www.w3.org/1999/xlink"><linearGradient id="a" gradientUnits="userSpaceOnUse" x1="200" x2="200" y1="496" y2="0"><stop offset="0" stop-color="#9f2fff"></stop><stop offset="1" stop-color="#0bb1d3"></stop></linearGradient><path d="m176 168v88h-47c-12.503906 0-24.855469 3.28125-35.71875 9.488281l-39.410156 22.511719h-53.871094v144h69.574219l29.859375 19.902344c11.878906 7.921875 25.6875 12.097656 39.941406 12.097656h37.433594c3.71875 18.230469 19.871094 32 39.191406 32h144c22.054688 0 40-17.945312 40-40v-288c0-19.96875-14.753906-36.425781-33.910156-39.382812 6.511718-12.457032 9.910156-26.265626 9.910156-40.617188 0-48.519531-39.480469-88-88-88s-88 39.480469-88 88c0 14.351562 3.398438 28.160156 9.902344 40.617188-19.148438 2.957031-33.902344 19.414062-33.902344 39.382812zm16 40h192v208h-192v-96h16v80h160v-176h-160v32h-16zm32 48v-16h128v144h-128v-64c17.648438 0 32-14.351562 32-32s-14.351562-32-32-32zm-115.6875 182.59375-33.886719-22.59375h-58.425781v-112h42.128906l43.085938-24.625c8.449218-4.824219 18.058594-7.375 27.785156-7.375h95c8.824219 0 16 7.175781 16 16s-7.175781 16-16 16h-104v8c0 22.054688-17.945312 40-40 40v16c28.167969 0 51.535156-20.894531 55.433594-48h40.566406v128h-36.625c-11.085938 0-21.832031-3.246094-31.0625-9.40625zm251.6875 41.40625h-144c-13.230469 0-24-10.769531-24-24v-24h192v24c0 13.230469-10.769531 24-24 24zm-72-464c39.695312 0 72 32.296875 72 72 0 14.425781-4.230469 28.152344-12.183594 40h-51.816406v-1.472656c9.289062-3.3125 16-12.113282 16-22.527344 0-13.230469-10.769531-24-24-24-4.40625 0-8-3.585938-8-8s3.59375-8 8-8 8 3.585938 8 8h16c0-10.414062-6.710938-19.214844-16-22.527344v-17.472656h-16v17.472656c-9.289062 3.3125-16 12.113282-16 22.527344 0 13.230469 10.769531 24 24 24 4.40625 0 8 3.585938 8 8s-3.59375 8-8 8-8-3.585938-8-8h-16c0 10.414062 6.710938 19.214844 16 22.527344v1.472656h-51.816406c-7.953125-11.847656-12.183594-25.574219-12.183594-40 0-39.703125 32.304688-72 72-72zm-72 128h144c13.230469 0 24 10.769531 24 24v24h-192v-24c0-13.230469 10.769531-24 24-24zm96 32h-48v-16h48zm-40 272h32v16h-32zm72-272h-16v-16h16zm-96 0h-16v-16h16zm48 152c0-4.414062-3.59375-8-8-8-13.230469 0-24-10.769531-24-24 0-10.414062 6.710938-19.214844 16-22.527344v-17.472656h16v17.472656c9.289062 3.3125 16 12.113282 16 22.527344h-16c0-4.414062-3.59375-8-8-8s-8 3.585938-8 8 3.59375 8 8 8c13.230469 0 24 10.769531 24 24 0 10.414062-6.710938 19.214844-16 22.527344v17.472656h-16v-17.472656c-9.289062-3.3125-16-12.113282-16-22.527344h16c0 4.414062 3.59375 8 8 8s8-3.585938 8-8zm0 0" fill="url(#a)"></path></svg>