<!-- icon666.com - MILLIONS OF FREE VECTOR ICONS --><svg id="Layer_1" enable-background="new 0 0 66 66" viewBox="0 0 66 66" xmlns="http://www.w3.org/2000/svg" xmlns:xlink="http://www.w3.org/1999/xlink"><linearGradient id="SVGID_1_" gradientTransform="matrix(1 0 0 -1 411 225)" gradientUnits="userSpaceOnUse" x1="-378.001" x2="-378.001" y1="182.927" y2="160.001"><stop offset="0" stop-color="#ffb441"></stop><stop offset="1" stop-color="#e85f3b"></stop></linearGradient><linearGradient id="SVGID_2_" gradientTransform="matrix(1 0 0 -1 411 225)" gradientUnits="userSpaceOnUse" x1="-378" x2="-378" y1="224" y2="174.983"><stop offset="0" stop-color="#20b6fe"></stop><stop offset="1" stop-color="#653aff"></stop></linearGradient><linearGradient id="SVGID_3_" gradientTransform="matrix(1 0 0 -1 411 225)" gradientUnits="userSpaceOnUse" x1="-378.014" x2="-378.014" y1="209.859" y2="188.865"><stop offset="0" stop-color="#f7f7f8"></stop><stop offset="1" stop-color="#c4c4cb"></stop></linearGradient><g><path d="m48.28 65c-.97 0-1.95-.37-2.7-1.12l-12.58-12.6-12.59 12.58c-1.49 1.49-3.9 1.49-5.39 0s-1.49-3.9 0-5.39l15.28-15.28c.71-.71 1.69-1.12 2.7-1.12s1.98.41 2.7 1.12l15.28 15.31c1.49 1.49 1.49 3.9-.01 5.39-.74.74-1.71 1.11-2.69 1.11z" fill="url(#SVGID_1_)"></path><path d="m63.49 10.77v29.48c0 5.4-4.37 9.77-9.77 9.77h-41.43c-5.4 0-9.77-4.37-9.77-9.77v-29.48c-.01-5.4 4.37-9.77 9.77-9.77h41.43c5.39 0 9.77 4.37 9.77 9.77z" fill="url(#SVGID_2_)"></path><path d="m37.97 36.13c-.01 0-.04 0-.05 0-.84-.01-1.64-.4-2.17-1.05l-9.1-11.16-9.9 10.89c-1.06 1.17-2.87 1.25-4.04.19s-1.25-2.87-.19-4.04l12.13-13.35c.56-.62 1.36-1.01 2.19-.93.83.02 1.61.41 2.14 1.05l9.05 11.11 11.14-12.74c1.04-1.19 2.84-1.31 4.03-.27s1.31 2.84.27 4.03l-13.36 15.3c-.53.62-1.31.97-2.14.97z" fill="url(#SVGID_3_)"></path></g></svg>