<!-- icon666.com - MILLIONS OF FREE VECTOR ICONS --><svg id="line_copy" viewBox="0 0 64 64" xmlns="http://www.w3.org/2000/svg" xmlns:xlink="http://www.w3.org/1999/xlink" data-name="line copy"><linearGradient id="linear-gradient" gradientUnits="userSpaceOnUse" x1="4" x2="60" y1="32" y2="32"><stop offset="0" stop-color="#7f00ff"></stop><stop offset="1" stop-color="#e100ff"></stop></linearGradient><path d="m59.68478 44.99564a5.06276 5.06276 0 0 0 -4.78965-3.31058v-2.7707a5.35888 5.35888 0 0 0 -2.24564-4.35093 5.3684 5.3684 0 0 0 2.33644-4.42587v-3.90269a1.00614 1.00614 0 0 0 -1.27113-.96213 2.73608 2.73608 0 0 1 -.7449.0947c-4.12072-.05474-3.97977-6.09843-.00086-6.14474.58974-.03417 1.11541.34194 1.62051-.07035a.999.999 0 0 0 .39638-.79708v-3.9027a5.37946 5.37946 0 0 0 -5.37348-5.37347h-2.77069c-.18568-6.74057-9.96457-6.73209-10.14354.00006l-2.77075-.00006a5.37946 5.37946 0 0 0 -5.37347 5.37347v2.7707c-6.79335.16383-6.655 10.00509.00013 10.1436l-.00013 2.77069a5.35891 5.35891 0 0 0 2.24515 4.35051 5.41141 5.41141 0 0 0 -1.35136 1.34325 5.3633 5.3633 0 0 0 -4.38791-2.29043h-2.7707c-.1794-6.71671-9.94773-6.76284-10.1436.00018l-2.77167-.00018a5.37945 5.37945 0 0 0 -5.37347 5.37347v3.9027a.99991.99991 0 0 0 .39637.79714c.51.40577 1.0326.044 1.62161.07023 3.99739.08066 4.1234 6.06645-.001 6.14473a2.73865 2.73865 0 0 1 -.7468-.09512 1.00743 1.00743 0 0 0 -1.27014.96261v3.9027a5.37944 5.37944 0 0 0 5.37347 5.37347h3.90318a.99688.99688 0 0 0 .79665-.39637c.41443-.50706.03972-1.03187.07127-1.62167.09092-4.004 6.07249-4.1209 6.14474.01135.01726.58187-.33072 1.112.07029 1.6113a1.00156 1.00156 0 0 0 .79665.39539h3.90318a5.36332 5.36332 0 0 0 4.38791-2.29042 5.36333 5.36333 0 0 0 4.38791 2.29042h3.90319a1.00732 1.00732 0 0 0 .96262-1.27118 2.72189 2.72189 0 0 1 -.0947-.7468 3.07287 3.07287 0 1 1 6.04906.74881 1.00642 1.00642 0 0 0 .96261 1.26911l3.90319.00006a5.37945 5.37945 0 0 0 5.37347-5.37347v-2.77069a5.11916 5.11916 0 0 0 4.78961-6.83302zm-29.13135-14.85808v-3.90269a1.00018 1.00018 0 0 0 -.3954-.79665c-.497-.40907-1.04371-.04272-1.62258-.07078a3.10887 3.10887 0 0 1 -2.881-4.18442 3.04151 3.04151 0 0 1 2.88388-1.96032c.60024-.01885 1.11327.3342 1.61868-.07035a.999.999 0 0 0 .39638-.79708v-3.9027a3.37773 3.37773 0 0 1 3.374-3.374h3.90318a.99782.99782 0 0 0 .79665-.39588c.40876-.49552.04314-1.04426.07029-1.6221.07872-3.984 6.074-4.13877 6.14474.01324.024.56936-.33353 1.119.07127 1.60935a1.00156 1.00156 0 0 0 .79665.39539h3.9022a3.37773 3.37773 0 0 1 3.374 3.374c-.01726.00031.03326 2.8053-.01751 2.7707-6.659.16237-6.74777 9.99264.01764 10.1436l-.00013 2.77069a3.37773 3.37773 0 0 1 -3.374 3.374h-2.77061c-.13638-6.6934-10.04865-6.756-10.2322.00013l-2.68209-.00013a3.37773 3.37773 0 0 1 -3.37404-3.374zm-1.72412 19.76244a1.00013 1.00013 0 0 0 -.3954.79664v3.9027a3.37773 3.37773 0 0 1 -3.374 3.374h-2.77073c-.21143-6.8393-9.95792-6.6485-10.1436.00018l-2.77167-.00018a3.37773 3.37773 0 0 1 -3.374-3.374c.01635-.0003-.03143-2.80346.01653-2.77069 6.77237-.17708 6.63508-9.987.00189-10.1436-.05345.03649-.00024-2.77033-.01848-2.7707a3.37782 3.37782 0 0 1 3.3741-3.374h3.90318a1.00613 1.00613 0 0 0 .96262-1.26917c-.99209-4.48651 5.92068-5.25375 6.05-.74862a2.71744 2.71744 0 0 1 -.09568.74716 1.00652 1.00652 0 0 0 .96262 1.27063h3.90318a3.37773 3.37773 0 0 1 3.374 3.374v3.9027a.99921.99921 0 0 0 .39637.79714c.52146.416 1.10162.02251 1.70252.07657a3.06511 3.06511 0 0 1 2.79913 1.9541 3.10663 3.10663 0 0 1 -2.872 4.1832c-.57858.0177-1.12841-.32748-1.63058.07194zm28.58659-1.36a3.08139 3.08139 0 0 1 -2.5032 1.28919 2.72853 2.72853 0 0 1 -.74685-.09519 1.00647 1.00647 0 0 0 -1.27015.96261v3.9027a3.37773 3.37773 0 0 1 -3.374 3.374h-2.7707c-.15828-6.79195-10.00722-6.65673-10.14359.00012l-2.77168-.00012a3.37774 3.37774 0 0 1 -3.374-3.374v-2.77065c6.78152-.14181 6.62831-10.01211-.00006-10.1436l.00006-2.7707a3.37774 3.37774 0 0 1 3.374-3.374h3.90319a1.24129 1.24129 0 0 0 .8894-.42615c.40418-.49265.04692-1.03126.06931-1.60794a3.04363 3.04363 0 0 1 1.92035-2.87644 3.10105 3.10105 0 0 1 4.13353 2.89261c.02813.57662-.33883 1.12572.07036 1.622a.99782.99782 0 0 0 .79664.39588h3.90319a3.37773 3.37773 0 0 1 3.374 3.374v3.9027a.99921.99921 0 0 0 .39637.79714c.49113.40705 1.04377.04332 1.61966.07023a3.07994 3.07994 0 0 1 2.50417 4.85561z" fill="url(#linear-gradient)"></path></svg>