<svg width="238" height="315" viewBox="0 0 238 315" fill="none" xmlns="http://www.w3.org/2000/svg">
<path d="M160.054 41.5727C154.891 61.7993 149.221 83.9811 156.678 89.3483C161.221 92.6223 168.709 88.2748 176.949 83.498C183.049 79.9634 198.248 71.1535 198.908 58.2876C199.038 55.7574 198.447 56.2558 193.836 41.5727C190.767 31.7891 189.24 26.9049 188.09 21.7524C185.205 8.78685 186.187 4.03306 183.701 3.11297C178.798 1.3188 169.591 17.7807 168.494 19.7359C163.668 28.3694 161.451 36.0751 160.047 41.5727H160.054Z" fill="#D67548"/>
<path d="M153.157 218.605C152.305 223.459 153.31 226.556 156.655 238.004C166.062 270.176 166.261 273.458 171.026 281.624C175.867 289.928 178.622 294.651 184.307 298.354C199.498 308.237 222.493 302.28 225.247 291.676C226.076 288.494 225.109 284.79 224.258 281.509C223.391 278.173 221.772 271.955 217.214 268.95C213.754 266.665 212.089 268.536 208.521 267.148C202.353 264.748 199.675 256.176 195.378 241.853C192.517 232.315 190.921 226.971 190.038 219.035C189.003 209.688 190.038 206.345 187.307 202.926C182.926 197.428 173.957 198.11 168.947 199.705C160.706 202.327 154.638 210.148 153.157 218.605Z" fill="#D67548"/>
<path d="M61.1639 282.26C69.6726 291.622 82.8923 290.564 85.7925 290.334C89.974 289.997 102.135 289.015 105.449 280.512C107.222 275.965 106.217 269.839 102.772 266.274C98.4751 261.827 93.7258 264.756 89.3372 260.469C84.8335 256.068 84.3194 247.604 87.4344 242.459C89.3832 239.246 91.3474 239.76 95.1376 236.616C99.9099 232.644 101.874 227.63 104.421 218.766L69.2814 222.224C68.4681 223.16 67.5474 224.279 66.4425 225.82C64.6395 228.343 56.3993 240.274 55.2791 255.923C54.7037 263.95 53.9518 274.324 61.1639 282.253V282.26Z" fill="#D67548"/>
<path d="M120.518 35.6611C115.355 54.3466 109.685 74.8492 117.142 79.81C121.684 82.831 129.173 78.8209 137.413 74.4045C143.512 71.1382 158.712 62.9954 159.371 51.1033C159.502 48.7647 158.911 49.2324 154.3 35.6534C151.231 26.6136 149.704 22.0975 148.553 17.336C145.668 5.35952 146.651 0.958425 144.165 0.11501C139.262 -1.54882 130.055 13.6633 128.958 15.4805C124.132 23.4546 121.914 30.5776 120.51 35.6534L120.518 35.6611Z" fill="#FDC849"/>
<path d="M116.981 144.469C115.485 156.139 112.592 161.453 108.365 163.293C103.754 165.302 99.0198 162.549 93.9176 160.509C78.7875 154.445 60.3966 154.583 50.8367 158.991C36.1056 165.785 26.8219 189.883 32.0852 207.61C41.6067 239.66 99.2807 252.986 139.868 240.872C148.745 238.219 163.937 233.472 175.514 219.518C194.082 197.129 189.555 167.678 185.987 144.477C184.399 134.157 177.993 95.5895 151.484 75.6006C146.697 71.9893 137.175 65.0119 127.876 67.8335C120.48 70.0801 116.713 77.4715 115.424 80.0937C106.378 98.4648 121.078 112.558 116.981 144.485V144.469Z" fill="url(#paint0_linear_724_1069)"/>
<path d="M106.424 228.711C104.49 232.79 104.759 235.711 105.411 246.438C107.245 276.579 106.692 279.492 109.462 287.627C112.286 295.9 113.889 300.608 118.585 305.017C131.129 316.794 154.868 316.28 159.97 307.547C161.497 304.933 161.405 301.482 161.32 298.431C161.236 295.325 161.075 289.544 157.323 285.971C154.469 283.257 152.428 284.56 149.267 282.613C143.804 279.247 143.152 271.173 142.231 257.74C141.617 248.792 141.28 243.777 142.231 236.639C143.351 228.228 145.124 225.514 143.244 221.948C140.229 216.228 131.336 214.994 126.096 215.362C117.472 215.975 109.784 221.588 106.416 228.696L106.424 228.711Z" fill="#FDC849"/>
<path d="M26.2618 215.462C26.1774 225.299 28.0495 231.602 23.7299 239.522C21.4205 243.762 19.6865 243.969 15.3669 248.892C13.326 251.223 3.95797 262.294 1.3033 277.759C-0.0624008 285.695 -1.81939 295.939 4.57178 304.542C12.1215 314.693 25.3795 314.931 28.2874 314.985C32.4919 315.061 44.6834 315.276 48.8112 307.133C51.0209 302.771 50.6219 296.591 47.5453 292.696C43.7167 287.857 38.6989 290.303 34.7476 285.603C30.6965 280.788 31.0188 272.308 34.6172 267.5C36.3358 265.208 37.548 265.415 42.8497 262.432C51.4889 257.586 57.1665 252.035 63.1204 246.223C66.4426 242.98 68.0998 241.362 69.4118 239.346C72.6649 234.347 73.3555 229.784 74.6137 221.734C77.5446 203.033 77.583 203.677 77.56 203.171C76.9155 189.255 66.8569 172.279 53.8674 171.136C47.8138 170.607 42.9878 173.69 41.4533 174.679C26.5073 184.309 26.2925 210.133 26.2465 215.446L26.2618 215.462Z" fill="#FDC849"/>
<path d="M175.783 192.697C170.627 197.39 169.392 207.848 173.443 211.229C177.172 214.35 186.217 210.647 191.12 205.149C199.514 195.734 196.161 179.854 193.46 179.325C192.079 179.057 191.657 182.944 186.747 186.924C181.913 190.842 179.036 189.73 175.783 192.697Z" fill="#FDC849"/>
<path d="M177.939 204.758C171.241 206.706 165.533 215.554 167.681 220.377C169.66 224.816 179.412 225.468 186.233 222.684C197.918 217.915 201.892 202.182 199.698 200.518C198.57 199.667 196.483 202.972 190.322 204.39C184.253 205.786 182.159 203.524 177.939 204.75V204.758Z" fill="#FDC849"/>
<path d="M171.732 217.586C164.903 216.152 155.704 221.281 155.328 226.541C154.983 231.395 163.277 236.547 170.612 237.306C183.164 238.594 194.089 226.58 192.931 224.08C192.34 222.8 188.941 224.739 182.834 223.091C176.826 221.465 176.044 218.49 171.732 217.586Z" fill="#FDC849"/>
<path d="M120.204 85.6449C125.827 89.7623 128.168 100.029 124.492 103.824C121.109 107.321 111.725 104.599 106.27 99.6533C96.9253 91.1808 98.5672 75.0332 101.207 74.2205C102.557 73.8064 103.385 77.6248 108.687 81.0598C113.912 84.4411 116.651 83.038 120.204 85.6373V85.6449Z" fill="#FDC849"/>
<path d="M119.344 97.8744C126.211 99.1012 132.825 107.298 131.198 112.32C129.702 116.943 120.073 118.63 112.999 116.583C100.877 113.079 95.2526 97.8591 97.2552 95.9729C98.2833 95.0068 100.708 98.0738 106.984 98.8329C113.16 99.5766 115.009 97.1077 119.337 97.8821L119.344 97.8744Z" fill="#FDC849"/>
<path d="M126.879 109.966C133.515 107.819 143.206 111.936 144.142 117.135C145.001 121.919 137.298 127.931 130.086 129.456C117.741 132.071 105.603 121.283 106.493 118.676C106.946 117.342 110.529 118.906 116.429 116.621C122.229 114.367 122.697 111.323 126.879 109.974V109.966Z" fill="#FDC849"/>
<path d="M152.888 225.015C146.06 223.582 136.861 228.711 136.485 233.971C136.139 238.824 144.433 243.977 151.768 244.736C164.32 246.024 175.246 234.009 174.087 231.51C173.497 230.229 170.098 232.169 163.99 230.521C157.983 228.895 157.2 225.92 152.888 225.015Z" fill="#FDC849"/>
<path d="M29.4919 154.69C33.7732 155.618 37.7322 160.908 36.5966 164.021C35.5532 166.889 29.4766 167.724 25.0802 166.275C17.5536 163.799 14.3772 154.123 15.6815 152.988C16.349 152.405 17.7991 154.383 21.7197 155.004C25.579 155.61 26.7912 154.107 29.4919 154.69Z" fill="#FDC849"/>
<path d="M28.9626 159.812C33.2131 158.761 39.0979 161.775 39.4508 165.072C39.7731 168.108 34.6862 171.528 30.1058 172.156C22.2568 173.237 15.1445 165.946 15.812 164.351C16.1572 163.538 18.3285 164.673 22.1187 163.507C25.8476 162.357 26.2772 160.471 28.9626 159.812Z" fill="#FDC849"/>
<path d="M29.6531 165.409C32.5226 162.104 39.0672 161.169 41.2539 163.661C43.2717 165.953 41.0851 171.681 37.7092 174.84C31.9241 180.245 21.9039 178.39 21.5279 176.703C21.3361 175.837 23.776 175.515 26.1928 172.379C28.5789 169.289 27.8424 167.502 29.6454 165.417L29.6531 165.409Z" fill="#FDC849"/>
<path d="M40.9546 121.26C46.9008 145.451 71.7596 158.309 76.1789 160.509C74.1917 162.641 71.0767 165.493 66.6727 167.855C65.5832 168.438 51.0669 175.936 35.8831 170.132C16.3643 162.672 12.413 139.577 11.6841 135.314C8.50005 116.69 17.0088 102.276 19.4103 98.3421C23.3693 91.8632 29.1006 87.1861 40.571 77.8318C41.5991 76.9884 43.5095 75.4933 44.0543 75.9303C44.6374 76.4057 43.3254 78.9053 43.1029 79.35C40.4559 84.6098 37.2258 106.109 40.9469 121.26H40.9546Z" fill="#FDC849"/>
<path d="M111.818 94.4548C111.818 117.664 127.132 137.308 148.216 143.818C155.428 147.682 168.77 151.776 183.432 151.73C185.013 151.723 186.609 151.669 188.212 151.562C195.877 151.048 215.78 149.714 226.859 135.1C231.639 128.789 233.503 121.682 235.091 115.601C235.912 112.458 236.319 110.05 236.449 108.172C236.557 106.73 236.495 105.603 236.342 104.691C236.135 103.426 235.743 102.582 235.344 101.923C233.465 98.7715 230.096 97.3531 227.112 96.1033C226.529 95.8579 225.976 95.6509 225.447 95.4745C224.311 95.0912 223.306 94.8458 222.355 94.6541C221.787 94.5391 221.242 94.4394 220.705 94.3398C220.375 94.2784 220.053 94.2171 219.723 94.1557C218.311 93.8644 216.877 93.481 215.173 92.6683C215.166 92.4076 215.15 92.1469 215.135 91.8939C214.813 85.1465 213.186 78.7519 210.509 72.9324C210.171 72.181 209.803 71.4449 209.427 70.7165C209.427 70.7088 209.419 70.7088 209.419 70.7011C207.509 67.0055 205.161 63.5705 202.437 60.4728C201.302 59.1617 200.097 57.9196 198.831 56.7388C189.586 48.09 177.172 42.7918 163.507 42.7918C162.226 42.7918 160.96 42.8378 159.709 42.9375C132.932 44.8773 111.818 67.2048 111.818 94.4548Z" fill="#FDC849"/>
<path d="M221.212 111.147C223.59 114.72 224.802 116.522 226.283 116.959C230.327 118.162 234.063 112.389 234.646 111.484C235.168 110.679 239.28 104.323 237.6 99.5153C235.759 94.2477 228.454 95.1065 226.306 95.3519C224.948 95.5129 217.207 96.6016 216.485 101.34C216.155 103.518 217.843 106.063 221.219 111.147H221.212Z" fill="#D67548"/>
<path d="M169.998 66.8904C172.376 68.6769 173.589 69.574 175.069 69.7964C179.113 70.4021 182.849 67.5115 183.432 67.0591C183.954 66.6528 188.067 63.4785 186.386 61.0709C184.545 58.441 177.241 58.8627 175.092 58.993C173.734 59.0697 165.993 59.6141 165.272 61.9833C164.942 63.0721 166.63 64.3449 170.006 66.8828L169.998 66.8904Z" fill="#D67548"/>
<path d="M226.298 117.12C226.245 117.265 226.199 117.419 226.145 117.58C225.953 118.193 225.769 118.929 225.662 119.765C225.577 120.309 225.539 120.892 225.539 121.513C225.554 124.687 226.805 128.444 229.321 131.358" stroke="#D67548" stroke-linecap="round" stroke-linejoin="round"/>
<path d="M225.109 109.744C227.633 115.601 226.053 122.402 221.296 126.405C215.603 131.197 207.815 129.909 203.458 126.765C201.977 125.699 200.987 124.48 200.358 123.56" stroke="#D67548" stroke-linecap="round" stroke-linejoin="round"/>
<path d="M142.423 313.996C145.576 310.17 147.433 304.059 144.625 298.369C141.878 292.803 135.648 289.636 129.349 290.687" stroke="#D67548" stroke-linecap="round" stroke-linejoin="round"/>
<path d="M159.241 308.598C159.241 308.598 159.241 308.59 159.241 308.582C161.29 304.856 162.08 299.972 159.809 295.371C157.054 289.797 150.824 286.638 144.533 287.681" stroke="#D67548" stroke-linecap="round" stroke-linejoin="round"/>
<path d="M209.043 303.261C211.153 299.013 212.219 292.864 210.179 287.098C208 280.941 203.066 277.437 198.071 278.603" stroke="#FDC849" stroke-width="0.94" stroke-miterlimit="10"/>
<path d="M221.864 298.139C223.414 294.053 223.981 288.762 222.217 283.778C220.03 277.614 215.097 274.125 210.11 275.275" stroke="#FDC849" stroke-width="0.94" stroke-miterlimit="10"/>
<path d="M93.7719 289.13C94.5084 285.672 94.5008 281.739 93.1734 277.974C90.9945 271.817 86.0534 268.313 81.0663 269.479" stroke="#FDC849" stroke-width="0.94" stroke-miterlimit="10"/>
<path d="M106.079 278.204C105.91 277.016 105.626 275.827 105.212 274.654C103.033 268.497 98.0915 265.001 93.1044 266.151" stroke="#FDC849" stroke-width="0.94" stroke-miterlimit="10"/>
<path d="M39.8037 313.819C40.8472 310.423 41.0313 306.374 39.5505 302.525C37.4023 296.959 32.5379 293.792 27.6198 294.842" stroke="#D67548" stroke-width="0.88" stroke-linecap="round" stroke-linejoin="round"/>
<path d="M49.2715 295.747C46.7703 292.611 43.1412 291.062 39.4815 291.837" stroke="#D67548" stroke-width="0.88" stroke-linecap="round" stroke-linejoin="round"/>
<path d="M125.935 36.6732C122.482 46.0198 119.521 54.9906 121.477 65.794C121.569 66.2847 121.654 66.6988 121.707 66.9748C125.697 66.4994 130.792 65.265 135.917 62.244C135.917 62.244 144.395 57.2525 148.461 48.4427C148.569 48.205 148.691 47.8906 148.714 47.4919C148.837 45.5981 146.704 44.0569 146.244 43.6965C143.973 41.9024 143.068 37.877 141.61 29.9489C138.602 13.6557 138.817 11.2481 137.681 11.0181C135.564 10.5964 132.357 19.2835 125.935 36.6655V36.6732Z" fill="#D67548"/>
<path d="M147.003 94.7921C147.057 103.249 159.54 108.754 167.857 109.744C177.655 110.901 187.2 106.37 188.435 102.391C189.24 99.7759 188.143 97.3607 187 94.8611C186.946 94.7385 186.862 94.5545 186.747 94.3168C186.072 92.8983 179.389 80.7531 167.865 79.9787C158.251 79.3347 146.965 86.7337 147.011 94.7921H147.003Z" fill="white"/>
<path d="M165.233 108.77C159.398 108.77 154.668 102.577 154.668 94.9378C154.668 87.2986 159.398 81.1058 165.233 81.1058C171.068 81.1058 175.798 87.2986 175.798 94.9378C175.798 102.577 171.068 108.77 165.233 108.77Z" fill="#D67548"/>
<defs>
<linearGradient id="paint0_linear_724_1069" x1="122.743" y1="112.074" x2="101.479" y2="239.205" gradientUnits="userSpaceOnUse">
<stop offset="0.08" stop-color="#D67548"/>
<stop offset="0.4" stop-color="#FDC849"/>
</linearGradient>
</defs>
</svg>
