<svg width="263" height="263" viewBox="0 0 263 263" fill="none" xmlns="http://www.w3.org/2000/svg">
<path d="M64.5309 112.164C64.0904 112.165 63.6519 112.106 63.2268 111.99C62.5873 111.819 61.9878 111.523 61.4625 111.119C60.9371 110.715 60.4963 110.211 60.165 109.636L52.6239 96.5222C52.2927 95.9473 52.0777 95.3125 51.991 94.6542C51.9044 93.9959 51.9479 93.3269 52.119 92.6854C52.2901 92.044 52.5855 91.4426 52.9883 90.9157C53.3911 90.3888 53.8935 89.9466 54.4667 89.6145L117.382 53.1702L115.961 50.6991C115.56 50.0028 115.33 49.2207 115.291 48.4176C115.252 47.6145 115.404 46.8135 115.735 46.0813C116.066 45.349 116.567 44.7065 117.195 44.2071C117.823 43.7077 118.561 43.3659 119.347 43.2099L166.26 33.9037C167.293 33.6951 168.366 33.8167 169.326 34.2513C170.287 34.6859 171.088 35.4117 171.616 36.3266C172.144 37.2414 172.373 38.2993 172.27 39.3515C172.168 40.4037 171.74 41.3972 171.045 42.1923L139.545 78.3048C139.017 78.91 138.353 79.3801 137.608 79.6762C136.863 79.9723 136.058 80.0858 135.26 80.0073C134.462 79.9288 133.695 79.6606 133.021 79.2249C132.347 78.7892 131.787 78.1986 131.387 77.5022L129.966 75.0342L67.0509 111.478C66.2855 111.925 65.4164 112.162 64.5309 112.164ZM63.8726 95.8523L66.3736 100.2L129.285 63.7499C129.859 63.4176 130.491 63.2019 131.148 63.115C131.804 63.0281 132.471 63.0717 133.11 63.2434C133.75 63.415 134.349 63.7114 134.874 64.1154C135.399 64.5195 135.84 65.0235 136.171 65.5985L136.59 66.3284L153.72 46.7017L128.205 51.7577L128.627 52.4876C129.295 53.6485 129.476 55.0279 129.13 56.3226C128.785 57.6173 127.941 58.7214 126.784 59.3922L63.8726 95.8523Z" fill="url(#paint0_linear_734_3010)"/>
<path d="M257.04 262.896H5.04C3.70331 262.896 2.42137 262.364 1.47618 261.415C0.530999 260.467 0 259.181 0 257.84V29.1036C0 27.7627 0.530999 26.4767 1.47618 25.5285C2.42137 24.5803 3.70331 24.0476 5.04 24.0476H29.0399C30.3765 24.0476 31.6585 24.5803 32.6037 25.5285C33.5489 26.4767 34.0798 27.7627 34.0798 29.1036V228.016H257.04C258.377 228.016 259.659 228.549 260.604 229.497C261.549 230.445 262.08 231.731 262.08 233.072V257.84C262.08 259.181 261.549 260.467 260.604 261.415C259.659 262.364 258.377 262.896 257.04 262.896ZM10.08 252.784H252V238.128H29.0399C27.7032 238.128 26.4212 237.595 25.476 236.647C24.5309 235.699 23.9999 234.413 23.9999 233.072V34.1596H10.08V252.784Z" fill="url(#paint1_linear_734_3010)"/>
<path d="M84.8264 238.128H56.9898C55.6531 238.128 54.3712 237.595 53.426 236.647C52.4808 235.699 51.9498 234.413 51.9498 233.072V175.389C51.9498 174.049 52.4808 172.763 53.426 171.814C54.3712 170.866 55.6531 170.333 56.9898 170.333H84.8264C86.163 170.333 87.445 170.866 88.3902 171.814C89.3354 172.763 89.8663 174.049 89.8663 175.389V233.072C89.8663 234.413 89.3354 235.699 88.3902 236.647C87.445 237.595 86.163 238.128 84.8264 238.128ZM62.0298 228.016H79.7864V180.445H62.0298V228.016Z" fill="url(#paint2_linear_734_3010)"/>
<path d="M134.82 238.128H106.971C105.634 238.128 104.352 237.595 103.407 236.647C102.462 235.699 101.931 234.413 101.931 233.072V140.203C101.931 138.862 102.462 137.576 103.407 136.628C104.352 135.68 105.634 135.147 106.971 135.147H134.82C136.157 135.147 137.439 135.68 138.384 136.628C139.329 137.576 139.86 138.862 139.86 140.203V233.072C139.86 234.413 139.329 235.699 138.384 236.647C137.439 237.595 136.157 238.128 134.82 238.128ZM112.023 228.016H129.78V145.259H112.011L112.023 228.016Z" fill="url(#paint3_linear_734_3010)"/>
<path d="M184.788 238.128H156.952C155.615 238.128 154.333 237.595 153.388 236.647C152.443 235.699 151.912 234.413 151.912 233.072V108.388C151.912 107.047 152.443 105.761 153.388 104.813C154.333 103.865 155.615 103.332 156.952 103.332H184.788C186.125 103.332 187.407 103.865 188.352 104.813C189.297 105.761 189.828 107.047 189.828 108.388V233.072C189.828 234.413 189.297 235.699 188.352 236.647C187.407 237.595 186.125 238.128 184.788 238.128ZM161.992 228.016H179.748V113.444H161.992V228.016Z" fill="url(#paint4_linear_734_3010)"/>
<path d="M234.77 238.128H206.933C205.596 238.128 204.314 237.595 203.369 236.647C202.424 235.699 201.893 234.413 201.893 233.072V70.2089C201.893 68.868 202.424 67.5819 203.369 66.6338C204.314 65.6856 205.596 65.1529 206.933 65.1529H234.77C236.106 65.1529 237.388 65.6856 238.333 66.6338C239.279 67.5819 239.809 68.868 239.809 70.2089V233.072C239.809 234.413 239.279 235.699 238.333 236.647C237.388 237.595 236.106 238.128 234.77 238.128ZM211.973 228.016H229.73V75.2649H211.973V228.016Z" fill="url(#paint5_linear_734_3010)"/>
<path d="M222.478 27.1602C221.142 27.1602 219.86 26.6275 218.914 25.6793C217.969 24.7312 217.438 23.4452 217.438 22.1042V17.3642C217.438 16.0233 217.969 14.7373 218.914 13.7891C219.86 12.8409 221.142 12.3082 222.478 12.3082C223.815 12.3082 225.097 12.8409 226.042 13.7891C226.987 14.7373 227.518 16.0233 227.518 17.3642V22.1042C227.518 23.4452 226.987 24.7312 226.042 25.6793C225.097 26.6275 223.815 27.1602 222.478 27.1602Z" fill="url(#paint6_linear_734_3010)"/>
<path d="M222.478 62.8967C221.142 62.8967 219.86 62.364 218.914 61.4158C217.969 60.4676 217.438 59.1816 217.438 57.8407V53.0722C217.438 51.7313 217.969 50.4453 218.914 49.4971C219.86 48.5489 221.142 48.0162 222.478 48.0162C223.815 48.0162 225.097 48.5489 226.042 49.4971C226.987 50.4453 227.518 51.7313 227.518 53.0722V57.8343C227.519 58.4988 227.389 59.157 227.136 59.7711C226.883 60.3853 226.512 60.9434 226.044 61.4136C225.576 61.8837 225.02 62.2567 224.408 62.5112C223.796 62.7657 223.141 62.8967 222.478 62.8967Z" fill="url(#paint7_linear_734_3010)"/>
<path d="M221.914 58.182C221.599 58.182 221.284 58.1819 220.969 58.1472C219.12 57.954 217.337 57.3484 215.751 56.3746C214.165 55.4008 212.816 54.0835 211.803 52.5192C211.091 51.3921 210.853 50.0285 211.139 48.7256C211.425 47.4227 212.213 46.2861 213.331 45.5636C214.449 44.841 215.807 44.5911 217.107 44.8682C218.408 45.1453 219.547 45.927 220.276 47.0429C220.628 47.5722 221.174 47.9403 221.795 48.0668C222.507 48.1027 223.204 47.8587 223.74 47.3866C224.275 46.9145 224.605 46.2516 224.661 45.5388C224.688 45.1842 224.644 44.8278 224.532 44.4904C224.42 44.153 224.242 43.8413 224.009 43.5733C223.536 43.0218 222.864 42.6809 222.141 42.6253H222.116C220.441 42.5008 218.806 42.0465 217.306 41.2883C215.805 40.5301 214.469 39.4829 213.372 38.2065C212.275 36.93 211.439 35.4494 210.913 33.849C210.386 32.2486 210.179 30.5599 210.303 28.8793C210.428 27.1986 210.88 25.5589 211.636 24.0538C212.392 22.5488 213.436 21.2077 214.708 20.1074C215.981 19.007 217.457 18.1688 219.052 17.6407C220.647 17.1125 222.331 16.9048 224.006 17.0293C225.856 17.2203 227.639 17.8247 229.226 18.7981C230.812 19.7715 232.16 21.0891 233.172 22.6541C233.544 23.2119 233.8 23.8382 233.928 24.4966C234.055 25.1549 234.051 25.8321 233.915 26.4887C233.779 27.1454 233.514 27.7683 233.136 28.3213C232.758 28.8742 232.273 29.3462 231.712 29.7096C231.15 30.0731 230.521 30.3208 229.863 30.4383C229.205 30.5558 228.53 30.5408 227.878 30.3941C227.226 30.2474 226.609 29.972 226.064 29.5839C225.518 29.1958 225.056 28.7028 224.702 28.1335C224.351 27.6038 223.805 27.2355 223.184 27.1097C222.472 27.0754 221.776 27.3199 221.241 27.7917C220.706 28.2635 220.375 28.9255 220.317 29.6377C220.291 29.9918 220.335 30.3477 220.447 30.6846C220.559 31.0215 220.736 31.3327 220.969 31.6C221.444 32.1499 222.115 32.4904 222.837 32.548H222.859C226.17 32.7812 229.26 34.2961 231.478 36.7727C233.695 39.2492 234.867 42.4936 234.744 45.8204C234.621 49.1472 233.214 52.2959 230.82 54.6013C228.426 56.9068 225.233 58.1885 221.914 58.1756V58.182Z" fill="url(#paint8_linear_734_3010)"/>
<path d="M220.85 75.208C213.436 75.208 206.188 73.0026 200.024 68.8706C193.86 64.7386 189.055 58.8657 186.218 51.9944C183.381 45.1232 182.639 37.5623 184.085 30.2678C185.531 22.9734 189.101 16.273 194.344 11.014C199.586 5.75496 206.265 2.17353 213.537 0.722567C220.808 -0.728392 228.345 0.0162947 235.195 2.86245C242.044 5.70861 247.898 10.5284 252.017 16.7124C256.136 22.8963 258.335 30.1667 258.335 37.604C258.321 47.5731 254.368 57.1301 247.341 64.1793C240.314 71.2285 230.787 75.1946 220.85 75.208ZM220.85 10.112C215.429 10.112 210.131 11.7244 205.624 14.7453C201.118 17.7661 197.605 22.0598 195.531 27.0833C193.457 32.1068 192.914 37.6345 193.971 42.9674C195.029 48.3004 197.639 53.199 201.471 57.0438C205.304 60.8886 210.187 63.507 215.503 64.5678C220.819 65.6286 226.329 65.0841 231.337 63.0033C236.345 60.9225 240.625 57.3988 243.636 52.8778C246.647 48.3567 248.255 43.0414 248.255 37.604C248.25 30.3128 245.361 23.3214 240.223 18.1642C235.085 13.007 228.118 10.1054 220.85 10.0962V10.112Z" fill="url(#paint9_linear_734_3010)"/>
<defs>
<linearGradient id="paint0_linear_734_3010" x1="131.04" y1="0" x2="131.04" y2="262.896" gradientUnits="userSpaceOnUse">
<stop stop-color="#FFE942"/>
<stop offset="1" stop-color="#E0743D"/>
</linearGradient>
<linearGradient id="paint1_linear_734_3010" x1="131.04" y1="0" x2="131.04" y2="262.896" gradientUnits="userSpaceOnUse">
<stop stop-color="#FFE942"/>
<stop offset="1" stop-color="#E0743D"/>
</linearGradient>
<linearGradient id="paint2_linear_734_3010" x1="131.04" y1="0" x2="131.04" y2="262.896" gradientUnits="userSpaceOnUse">
<stop stop-color="#FFE942"/>
<stop offset="1" stop-color="#E0743D"/>
</linearGradient>
<linearGradient id="paint3_linear_734_3010" x1="131.04" y1="0" x2="131.04" y2="262.896" gradientUnits="userSpaceOnUse">
<stop stop-color="#FFE942"/>
<stop offset="1" stop-color="#E0743D"/>
</linearGradient>
<linearGradient id="paint4_linear_734_3010" x1="131.04" y1="0" x2="131.04" y2="262.896" gradientUnits="userSpaceOnUse">
<stop stop-color="#FFE942"/>
<stop offset="1" stop-color="#E0743D"/>
</linearGradient>
<linearGradient id="paint5_linear_734_3010" x1="131.04" y1="0" x2="131.04" y2="262.896" gradientUnits="userSpaceOnUse">
<stop stop-color="#FFE942"/>
<stop offset="1" stop-color="#E0743D"/>
</linearGradient>
<linearGradient id="paint6_linear_734_3010" x1="131.04" y1="0" x2="131.04" y2="262.896" gradientUnits="userSpaceOnUse">
<stop stop-color="#FFE942"/>
<stop offset="1" stop-color="#E0743D"/>
</linearGradient>
<linearGradient id="paint7_linear_734_3010" x1="131.04" y1="0" x2="131.04" y2="262.896" gradientUnits="userSpaceOnUse">
<stop stop-color="#FFE942"/>
<stop offset="1" stop-color="#E0743D"/>
</linearGradient>
<linearGradient id="paint8_linear_734_3010" x1="131.04" y1="0" x2="131.04" y2="262.896" gradientUnits="userSpaceOnUse">
<stop stop-color="#FFE942"/>
<stop offset="1" stop-color="#E0743D"/>
</linearGradient>
<linearGradient id="paint9_linear_734_3010" x1="131.04" y1="0" x2="131.04" y2="262.896" gradientUnits="userSpaceOnUse">
<stop stop-color="#FFE942"/>
<stop offset="1" stop-color="#E0743D"/>
</linearGradient>
</defs>
</svg>
