<!-- icon666.com - MILLIONS OF FREE VECTOR ICONS --><svg id="Layer_1" enable-background="new 0 0 60 60" viewBox="0 0 60 60" xmlns="http://www.w3.org/2000/svg"><path d="m52 23.45c-4.31-4.72-12.65-7.66-21.76-7.66-6.36 0-7.52 3.11-8.65 6.11-.1.25-.19.51-.29.76-1.72-1.1-3.21-1.97-4.45-2.61-.01-.21-.01-.42-.04-.63-.21-1.27-.9-2.38-1.95-3.12-4.22-3.02-8.11-.99-9.58.5-.2.21-.3.49-.28.78s.17.55.4.73c.01.01 1.25.97 3.42 4.53 1.1 1.81 2.44 2.24 3.36 2.27h.12c.52 0 1.06-.13 1.57-.36.89.85 2.01 1.81 3.33 2.88-1.68.89-4.07 1.54-7.61 1.78-1.52.1-2.81.69-3.45 1.58-.4.55-.53 1.2-.37 1.82 1.87 7.21 12.27 12.43 24.47 12.43.43 0 .87-.01 1.3-.02 12.66-.38 22.73-6.35 23.41-13.88.26-2.77-.76-5.5-2.95-7.89zm-39.74-.33c-.63-.02-1.21-.46-1.72-1.31-1.32-2.17-2.34-3.47-3.02-4.22 1.16-.73 3.45-1.61 6.18.34.61.44 1.01 1.08 1.14 1.82.12.74-.05 1.48-.49 2.09-.58.81-1.42 1.3-2.09 1.28zm3.26.45c.16-.17.31-.35.45-.55.2-.28.37-.59.5-.9 1.13.61 2.47 1.41 3.98 2.38-.39.69-.88 1.35-1.54 1.95-1.34-1.07-2.49-2.04-3.39-2.88zm37.45 7.6c-.58 6.42-10.02 11.72-21.48 12.07-11.68.34-22.1-4.44-23.78-10.92 0-.02-.01-.06.05-.15.23-.31.94-.69 1.96-.76 10.7-.72 12.38-5.21 13.73-8.81 1.05-2.8 1.81-4.82 6.78-4.82 8.57 0 16.34 2.68 20.29 7 1.8 1.98 2.65 4.19 2.45 6.39z"></path><path d="m35.47 23.06c0-1.96-1.59-3.55-3.55-3.55s-3.55 1.59-3.55 3.55 1.59 3.55 3.55 3.55c1.96-.01 3.55-1.6 3.55-3.55zm-5.09 0c0-.85.69-1.55 1.55-1.55.85 0 1.55.69 1.55 1.55s-.69 1.55-1.55 1.55c-.86-.01-1.55-.7-1.55-1.55z"></path><path d="m45.35 25.6c0-1.96-1.59-3.55-3.55-3.55s-3.55 1.59-3.55 3.55 1.59 3.55 3.55 3.55 3.55-1.59 3.55-3.55zm-5.09 0c0-.85.69-1.55 1.55-1.55.85 0 1.55.69 1.55 1.55s-.69 1.55-1.55 1.55-1.55-.69-1.55-1.55z"></path><path d="m44.35 30.86c-1.96 0-3.55 1.59-3.55 3.55s1.59 3.55 3.55 3.55 3.55-1.59 3.55-3.55-1.59-3.55-3.55-3.55zm0 5.1c-.85 0-1.55-.69-1.55-1.55s.69-1.55 1.55-1.55 1.55.69 1.55 1.55-.69 1.55-1.55 1.55z"></path><path d="m32.98 34.75c-1.96 0-3.55 1.59-3.55 3.55s1.59 3.55 3.55 3.55 3.55-1.59 3.55-3.55c-.01-1.95-1.6-3.55-3.55-3.55zm0 5.1c-.85 0-1.55-.69-1.55-1.55s.69-1.55 1.55-1.55 1.55.69 1.55 1.55-.7 1.55-1.55 1.55z"></path><path d="m22.04 32.79c-1.96 0-3.55 1.59-3.55 3.55s1.59 3.55 3.55 3.55 3.55-1.59 3.55-3.55-1.59-3.55-3.55-3.55zm0 5.09c-.85 0-1.55-.69-1.55-1.55s.69-1.55 1.55-1.55 1.55.69 1.55 1.55-.69 1.55-1.55 1.55z"></path></svg>